<svg width="6" height="104" viewBox="0 0 6 104" fill="none" xmlns="http://www.w3.org/2000/svg">
<rect x="2.5" width="1" height="7" fill="#CCCCCC"/>
<circle cx="3" cy="11" r="2" stroke="#CCCCCC"/>
<rect x="2.5" y="15" width="1" height="37" fill="#CCCCCC"/>
<rect x="2.5" y="54" width="1" height="1.83333" fill="#CCCCCC"/>
<rect x="2.5" y="57.8334" width="1" height="1.83333" fill="#CCCCCC"/>
<rect x="2.5" y="61.6666" width="1" height="1.83333" fill="#CCCCCC"/>
<rect x="2.5" y="65.5" width="1" height="1.83333" fill="#CCCCCC"/>
<rect x="2.5" y="69.3334" width="1" height="1.83333" fill="#CCCCCC"/>
<circle cx="3" cy="75.1666" r="2" stroke="#CCCCCC"/>
<rect x="2.5" y="79.1666" width="1" height="1.83333" fill="#CCCCCC"/>
<rect x="2.5" y="83" width="1" height="1.83333" fill="#CCCCCC"/>
<rect x="2.5" y="86.8334" width="1" height="1.83333" fill="#CCCCCC"/>
<rect x="2.5" y="90.6666" width="1" height="1.83333" fill="#CCCCCC"/>
<rect x="2.5" y="94.5" width="1" height="1.83333" fill="#CCCCCC"/>
<rect x="2.5" y="98.3334" width="1" height="1.83333" fill="#CCCCCC"/>
<rect x="2.5" y="102.167" width="1" height="1.83333" fill="#CCCCCC"/>
</svg>
