<svg xmlns="http://www.w3.org/2000/svg" width="20" height="20" viewBox="0 0 20 20">
    <g fill="none" fill-rule="evenodd">
        <g fill="#666">
            <g>
                <g>
                    <g>
                        <path d="M10 8c.483 0 .875.392.875.875v5.25c0 .483-.392.875-.875.875s-.875-.392-.875-.875v-5.25c0-.483.392-.875.875-.875zm0-3c.552 0 1 .448 1 1s-.448 1-1 1-1-.448-1-1 .448-1 1-1zm0-5c5.523 0 10 4.477 10 10s-4.477 10-10 10S0 15.523 0 10 4.477 0 10 0zm0 1.75c-4.556 0-8.25 3.694-8.25 8.25s3.694 8.25 8.25 8.25 8.25-3.694 8.25-8.25S14.556 1.75 10 1.75z" transform="translate(-32.000000, -332.000000) translate(0.000000, 264.000000) translate(20.000000, 56.000000) translate(12.000000, 12.000000)"/>
                    </g>
                </g>
            </g>
        </g>
    </g>
</svg>
