<svg width="20" height="20" viewBox="0 0 20 20" fill="none" xmlns="http://www.w3.org/2000/svg">
<g id="Icons/Controls/Edit">
<path id="Shape" fill-rule="evenodd" clip-rule="evenodd" d="M18 10V16.5L17.9931 16.6445C17.9204 17.4051 17.2797 18 16.5 18H3.5L3.35554 17.9931C2.59489 17.9204 2 17.2797 2 16.5V3.5L2.00687 3.35554C2.07955 2.59489 2.7203 2 3.5 2H10V0H3C1.34315 0 0 1.34315 0 3V17C0 18.6569 1.34315 20 3 20H17C18.6569 20 20 18.6569 20 17V10H18ZM20.0079 1.41421L18.5937 0L7.98711 10.6066C7.59658 10.9971 7.59658 11.6303 7.98711 12.0208C8.37763 12.4113 9.0108 12.4113 9.40132 12.0208L20.0079 1.41421Z" fill="#666"/>
</g>
</svg>
