<svg width="211" height="118" viewBox="0 0 211 118" fill="none" xmlns="http://www.w3.org/2000/svg">
<g id="Illustration">
<path id="Cloud" d="M152.835 16L152.392 15.768L152.009 16.5H152.835V16ZM117.165 21.5L117.608 21.732L117.991 21H117.165V21.5ZM18.0362 97V97.5H19.1387L18.4123 96.6706L18.0362 97ZM73.4638 100.5V100H72.3613L73.0877 100.829L73.4638 100.5ZM88.75 0.5C82.8129 0.5 78 5.31294 78 11.25H79C79 5.86522 83.3652 1.5 88.75 1.5V0.5ZM143.75 0.5H88.75V1.5H143.75V0.5ZM154.5 11.25C154.5 5.31294 149.687 0.5 143.75 0.5V1.5C149.135 1.5 153.5 5.86522 153.5 11.25H154.5ZM153.278 16.232C154.059 14.7422 154.5 13.0469 154.5 11.25H153.5C153.5 12.8814 153.1 14.4179 152.392 15.768L153.278 16.232ZM181.25 15.5H152.835V16.5H181.25V15.5ZM192 26.25C192 20.3129 187.187 15.5 181.25 15.5V16.5C186.635 16.5 191 20.8652 191 26.25H192ZM181.25 37C187.187 37 192 32.1871 192 26.25H191C191 31.6348 186.635 36 181.25 36V37ZM126.25 37H181.25V36H126.25V37ZM115.5 26.25C115.5 32.1871 120.313 37 126.25 37V36C120.865 36 116.5 31.6348 116.5 26.25H115.5ZM116.722 21.268C115.941 22.7578 115.5 24.4531 115.5 26.25H116.5C116.5 24.6186 116.9 23.0821 117.608 21.732L116.722 21.268ZM88.75 22H117.165V21H88.75V22ZM78 11.25C78 17.1871 82.8129 22 88.75 22V21C83.3652 21 79 16.6348 79 11.25H78ZM28.25 36C22.3129 36 17.5 40.8129 17.5 46.75H18.5C18.5 41.3652 22.8652 37 28.25 37V36ZM83.25 36H28.25V37H83.25V36ZM94 46.75C94 40.8129 89.1871 36 83.25 36V37C88.6348 37 93 41.3652 93 46.75H94ZM83.25 57.5C89.1871 57.5 94 52.6871 94 46.75H93C93 52.1348 88.6348 56.5 83.25 56.5V57.5ZM28.25 57.5H83.25V56.5H28.25V57.5ZM17.5 46.75C17.5 52.6871 22.3129 57.5 28.25 57.5V56.5C22.8652 56.5 18.5 52.1348 18.5 46.75H17.5ZM16 90.25C16 84.8652 20.3652 80.5 25.75 80.5V79.5C19.8129 79.5 15 84.3129 15 90.25H16ZM18.4123 96.6706C16.91 94.9551 16 92.7094 16 90.25H15C15 92.9609 16.0041 95.4386 17.66 97.3294L18.4123 96.6706ZM10.75 97.5H18.0362V96.5H10.75V97.5ZM1 107.25C1 101.865 5.36522 97.5 10.75 97.5V96.5C4.81294 96.5 0 101.313 0 107.25H1ZM10.75 117C5.36523 117 1 112.635 1 107.25H0C0 113.187 4.81294 118 10.75 118V117ZM65.75 117H10.75V118H65.75V117ZM75.5 107.25C75.5 112.635 71.1348 117 65.75 117V118C71.6871 118 76.5 113.187 76.5 107.25H75.5ZM73.0877 100.829C74.59 102.545 75.5 104.791 75.5 107.25H76.5C76.5 104.539 75.4959 102.061 73.84 100.171L73.0877 100.829ZM80.75 100H73.4638V101H80.75V100ZM90.5 90.25C90.5 95.6348 86.1348 100 80.75 100V101C86.6871 101 91.5 96.1871 91.5 90.25H90.5ZM80.75 80.5C86.1348 80.5 90.5 84.8652 90.5 90.25H91.5C91.5 84.3129 86.6871 79.5 80.75 79.5V80.5ZM25.75 80.5H80.75V79.5H25.75V80.5ZM135.5 80.25C135.5 74.8652 139.865 70.5 145.25 70.5V69.5C139.313 69.5 134.5 74.3129 134.5 80.25H135.5ZM145.25 90C139.865 90 135.5 85.6348 135.5 80.25H134.5C134.5 86.1871 139.313 91 145.25 91V90ZM200.25 90H145.25V91H200.25V90ZM210 80.25C210 85.6348 205.635 90 200.25 90V91C206.187 91 211 86.1871 211 80.25H210ZM200.25 70.5C205.635 70.5 210 74.8652 210 80.25H211C211 74.3129 206.187 69.5 200.25 69.5V70.5ZM145.25 70.5H200.25V69.5H145.25V70.5Z" fill="#CCCCCC"/>
<g id="Cloud_2">
<path fill-rule="evenodd" clip-rule="evenodd" d="M156.196 107H60.5098C41.4506 107 26 91.6098 26 72.625C26 53.6402 41.4506 38.25 60.5098 38.25C61.1153 38.25 61.7171 38.2655 62.3149 38.2962C67.6995 20.2007 84.5178 7 104.431 7C127.991 7 147.218 25.477 148.305 48.6769C150.818 47.9911 153.464 47.625 156.196 47.625C172.656 47.625 186 60.9165 186 77.3125C186 93.1843 173.496 106.147 157.765 106.96V107H156.196Z" fill="#F5F5F5"/>
<path d="M62.3149 38.2962L62.2892 38.7956L62.6819 38.8157L62.7941 38.4388L62.3149 38.2962ZM148.305 48.6769L147.805 48.7002L147.834 49.3234L148.436 49.1592L148.305 48.6769ZM157.765 106.96L157.739 106.46L157.265 106.485V106.96H157.765ZM157.765 107V107.5H158.265V107H157.765ZM156.196 106.5H60.5098V107.5H156.196V106.5ZM60.5098 106.5C41.7249 106.5 26.5 91.3318 26.5 72.625H25.5C25.5 91.8878 41.1763 107.5 60.5098 107.5V106.5ZM26.5 72.625C26.5 53.9182 41.7249 38.75 60.5098 38.75V37.75C41.1763 37.75 25.5 53.3622 25.5 72.625H26.5ZM60.5098 38.75C61.1067 38.75 61.7 38.7653 62.2892 38.7956L62.3405 37.7969C61.7342 37.7658 61.1238 37.75 60.5098 37.75V38.75ZM62.7941 38.4388C68.1171 20.5506 84.7439 7.5 104.431 7.5V6.5C84.2917 6.5 67.282 19.8508 61.8356 38.1536L62.7941 38.4388ZM104.431 7.5C127.724 7.5 146.731 25.7676 147.805 48.7002L148.804 48.6535C147.705 25.1864 128.257 6.5 104.431 6.5V7.5ZM148.436 49.1592C150.907 48.4851 153.509 48.125 156.196 48.125V47.125C153.419 47.125 150.729 47.4972 148.173 48.1945L148.436 49.1592ZM156.196 48.125C172.382 48.125 185.5 61.1945 185.5 77.3125H186.5C186.5 60.6386 172.931 47.125 156.196 47.125V48.125ZM185.5 77.3125C185.5 92.9151 173.207 105.661 157.739 106.46L157.79 107.459C173.784 106.633 186.5 93.4535 186.5 77.3125H185.5ZM157.265 106.96V107H158.265V106.96H157.265ZM157.765 106.5H156.196V107.5H157.765V106.5Z" fill="#CCCCCC"/>
</g>
</g>
</svg>
