<?xml version="1.0" encoding="UTF-8" standalone="no"?>
<svg
    width="166px"
    height="166px"
    viewBox="0 0 166 166"
    version="1.1"
    id="svg1"
    xmlns="http://www.w3.org/2000/svg"
    xmlns:svg="http://www.w3.org/2000/svg"
    xmlns:rdf="http://www.w3.org/1999/02/22-rdf-syntax-ns#"
    xmlns:cc="http://creativecommons.org/ns#"
    xmlns:dc="http://purl.org/dc/elements/1.1/">
    <defs
        id="defs1" />
    <title
        id="title1">Icon</title>
    <path
        id="Border-Copy"
        style="fill:none;fill-rule:evenodd;stroke:#CCCCCC;stroke-width:3"
        d="M 164.5,83 A 81.5,81.5 0 0 1 83,164.5 81.5,81.5 0 0 1 1.5,83 81.5,81.5 0 0 1 83,1.5 81.5,81.5 0 0 1 164.5,83 Z" />
    <path
        id="Fill-Copy"
        style="fill:#ffffff;fill-rule:evenodd"
        d="M 163,83 A 80,80 0 0 1 83,163 80,80 0 0 1 3,83 80,80 0 0 1 83,3 80,80 0 0 1 163,83 Z" />
    <path
        id="Path"
        style="fill:none;fill-rule:evenodd;stroke:#CCCCCC;stroke-width:3"
        transform="translate(3,3)"
        d="M 40,77.905243 68.284271,105.8545 120.13877,54" />
    <metadata
        id="metadata1">
        <rdf:RDF>
            <cc:Work
                rdf:about="">
                <dc:title>Icon</dc:title>
            </cc:Work>
        </rdf:RDF>
    </metadata>
</svg>
