<svg xmlns="http://www.w3.org/2000/svg" width="90" height="140" viewBox="0 0 90 140">
    <path fill="#00A6A0" fill-rule="evenodd" d="M39.54 21.278c23.331 0 39.54 14.705 39.54 35.576 0 21.142-16.005 35.644-39.54 35.644-3.994 0-7.99-.429-11.635-1.343l-.93-.241c-.454-.122-1.217-.335-2.016-.585-3.392 3.592-5.087 6.98-5.087 11.113 0 8.655 7.112 11.597 19.956 12.115l1.528.06c18.405.75 28.608 2.016 37.182 6.731 7.257 4.134 10.648 9.758 11.462 17.687-.068.068-.203.135-.34.135-4.068 1.085-8.138 1.627-13.292 1.83-1.831-11.181-13.158-12.943-35.2-14.23l-1.555-.084c-4.566-.256-8.259-.567-11.128-.933l-.467-.054c-1.033-.13-3.15-.45-5.026-.962-2.917-.813-5.765-2.033-7.868-3.185-2.306-1.288-3.933-3.185-4.272-3.524-3.188-3.524-4.816-7.928-4.816-12.536 0-7.319 3.323-13.079 10.377-18.16-.271-.136-.475-.272-.678-.408-.051-.05-.14-.101-.21-.152l-.062-.05-.406-.204-.292-.19c-.276-.179-.505-.318-.658-.42-1.085-.813-2.17-1.626-3.188-2.507-.395-.283-.744-.612-1.084-.95l-.204-.202c-.326-.325-.651-.65-.942-.976l-.211-.244c-1.492-1.694-2.78-3.456-3.934-5.421C1.56 69.526 0 63.562 0 56.854 0 36.05 16.277 21.278 39.54 21.278zm.068 11.452c-14.582 0-24.755 9.893-24.755 24.192 0 4.608 1.085 8.741 2.984 12.265.678 1.287 1.492 2.507 2.442 3.591.203.204.369.407.553.61l.193.203.814.814c1.252 1.188 2.62 2.261 4.156 3.165l.388.223c.475.27.95.542 1.424.745.285.163.594.301.899.43l.593.248.211.081c.146.054.3.109.458.163l.484.162c2.78.95 5.833 1.491 9.156 1.491 14.785 0 24.959-9.961 24.959-24.26 0-6.572-2.238-12.264-6.036-16.466-.204-.27-.475-.542-.747-.813-.678-.61-1.288-1.152-1.966-1.694-1.492-1.152-3.12-2.168-4.951-2.914l-1.035-.402c-.509-.197-1.014-.384-1.543-.547-2.645-.813-5.561-1.287-8.68-1.287zM79.081 0c6.443 0 10.851 4.337 10.851 10.503 0 6.167-4.408 10.504-10.851 10.504-6.308 0-10.716-4.337-10.716-10.504C68.365 4.337 72.773 0 79.08 0z"/>
</svg>
