<svg xmlns="http://www.w3.org/2000/svg" width="212" height="118" viewBox="0 0 212 118">
    <g fill="none" fill-rule="evenodd">
        <path stroke="#CCC" d="M80.259 79c5.562 0 10.088 4.436 10.237 9.968l.004.282c0 5.66-4.581 10.25-10.241 10.25h-7.292c1.52 1.737 2.462 3.993 2.53 6.468l.003.282c0 5.66-4.581 10.25-10.241 10.25H10.24C4.585 116.5 0 111.912 0 106.25 0 100.59 4.581 96 10.241 96h7.293C15.956 94.199 15 91.837 15 89.25 15 83.59 19.581 79 25.241 79H80.26zm119.5-10c5.562 0 10.088 4.436 10.237 9.968l.004.282c0 5.66-4.581 10.25-10.241 10.25H144.74c-5.656 0-10.241-4.588-10.241-10.25 0-5.66 4.581-10.25 10.241-10.25h55.018zm-117-33.5c5.562 0 10.088 4.436 10.237 9.968l.004.282C93 51.41 88.419 56 82.759 56H27.74C22.085 56 17.5 51.412 17.5 45.75c0-5.66 4.581-10.25 10.241-10.25H82.76zm60.5-35.5c5.562 0 10.088 4.436 10.237 9.968l.004.282c0 1.714-.42 3.33-1.163 4.75h28.422c5.562 0 10.088 4.436 10.237 9.968l.004.282c0 5.66-4.581 10.25-10.241 10.25H125.74c-5.656 0-10.241-4.588-10.241-10.25 0-1.714.42-3.33 1.163-4.75H88.24C82.585 20.5 78 15.912 78 10.25 78 4.59 82.581 0 88.241 0h55.018z" transform="translate(1 1)"/>
        <path fill="#FFF" stroke="#CCC" d="M66.51 106C47.45 106 32 90.61 32 71.625S47.45 37.25 66.51 37.25c.605 0 1.207.016 1.805.046C73.7 19.201 90.517 6 110.431 6c23.56 0 42.788 18.478 43.874 41.678 2.513-.687 5.159-1.053 7.891-1.053 16.46 0 29.804 13.292 29.804 29.688 0 15.871-12.504 28.834-28.235 29.647v.04z" transform="translate(1 1)"/>
        <path fill="#CCC" d="M108 44c8.837 0 16 7.163 16 16 0 3.697-1.254 7.102-3.36 9.811l10.916 10.917-2.828 2.828L117.81 72.64C115.102 74.746 111.697 76 108 76c-8.837 0-16-7.163-16-16s7.163-16 16-16zm0 4c-6.627 0-12 5.373-12 12s5.373 12 12 12 12-5.373 12-12-5.373-12-12-12z" transform="translate(1 1)"/>
    </g>
</svg>
