<svg width="20" height="20" viewBox="0 0 20 20" fill="none" xmlns="http://www.w3.org/2000/svg">
<path fill-rule="evenodd" clip-rule="evenodd" d="M3 0C1.34315 0 0 1.34315 0 3V6H2V3C2 2.48716 2.38604 2.06449 2.88338 2.00673L3 2H6V0H3ZM3 20C1.34315 20 0 18.6569 0 17V14H2V17C2 17.5128 2.38604 17.9355 2.88338 17.9933L3 18H6V20H3ZM20 17C20 18.6569 18.6569 20 17 20H14V18H17L17.1166 17.9933C17.614 17.9355 18 17.5128 18 17V14H20V17ZM17 0C18.6569 0 20 1.34315 20 3V6H18V3C18 2.48716 17.614 2.06449 17.1166 2.00673L17 2H14V0H17Z" fill="black"/>
<circle cx="10" cy="10" r="2" fill="black"/>
</svg>
